<mxfile host="65bd71144e">
    <diagram id="KY0hYDRqwjkJu1BTOIER" name="PÃ¡gina-1">
        <mxGraphModel dx="1105" dy="782" grid="1" gridSize="10" guides="1" tooltips="1" connect="1" arrows="1" fold="1" page="1" pageScale="1" pageWidth="690" pageHeight="980" math="0" shadow="0">
            <root>
                <mxCell id="0"/>
                <mxCell id="1" parent="0"/>
                <object label="CATEGORIES" placeholders="1" id="15">
                    <mxCell style="shape=table;startSize=30;container=1;collapsible=1;childLayout=tableLayout;fixedRows=1;rowLines=0;fontStyle=1;align=center;resizeLast=1;" parent="1" vertex="1">
                        <mxGeometry x="110" y="50" width="180" height="100" as="geometry"/>
                    </mxCell>
                </object>
                <mxCell id="16" value="" style="shape=partialRectangle;collapsible=0;dropTarget=0;pointerEvents=0;fillColor=none;top=0;left=0;bottom=1;right=0;points=[[0,0.5],[1,0.5]];portConstraint=eastwest;" parent="15" vertex="1">
                    <mxGeometry y="30" width="180" height="30" as="geometry"/>
                </mxCell>
                <mxCell id="17" value="PK" style="shape=partialRectangle;connectable=0;fillColor=none;top=0;left=0;bottom=0;right=0;fontStyle=1;overflow=hidden;" parent="16" vertex="1">
                    <mxGeometry width="30" height="30" as="geometry">
                        <mxRectangle width="30" height="30" as="alternateBounds"/>
                    </mxGeometry>
                </mxCell>
                <mxCell id="18" value="ID" style="shape=partialRectangle;connectable=0;fillColor=none;top=0;left=0;bottom=0;right=0;align=left;spacingLeft=6;fontStyle=5;overflow=hidden;" parent="16" vertex="1">
                    <mxGeometry x="30" width="150" height="30" as="geometry">
                        <mxRectangle width="150" height="30" as="alternateBounds"/>
                    </mxGeometry>
                </mxCell>
                <mxCell id="19" value="" style="shape=partialRectangle;collapsible=0;dropTarget=0;pointerEvents=0;fillColor=none;top=0;left=0;bottom=0;right=0;points=[[0,0.5],[1,0.5]];portConstraint=eastwest;" parent="15" vertex="1">
                    <mxGeometry y="60" width="180" height="30" as="geometry"/>
                </mxCell>
                <mxCell id="20" value="" style="shape=partialRectangle;connectable=0;fillColor=none;top=0;left=0;bottom=0;right=0;editable=1;overflow=hidden;" parent="19" vertex="1">
                    <mxGeometry width="30" height="30" as="geometry">
                        <mxRectangle width="30" height="30" as="alternateBounds"/>
                    </mxGeometry>
                </mxCell>
                <mxCell id="21" value="DESCRIPTION" style="shape=partialRectangle;connectable=0;fillColor=none;top=0;left=0;bottom=0;right=0;align=left;spacingLeft=6;overflow=hidden;" parent="19" vertex="1">
                    <mxGeometry x="30" width="150" height="30" as="geometry">
                        <mxRectangle width="150" height="30" as="alternateBounds"/>
                    </mxGeometry>
                </mxCell>
                <mxCell id="22" value="PRODUCTS" style="shape=table;startSize=30;container=1;collapsible=1;childLayout=tableLayout;fixedRows=1;rowLines=0;fontStyle=1;align=center;resizeLast=1;" parent="1" vertex="1">
                    <mxGeometry x="400" y="40" width="180" height="220" as="geometry"/>
                </mxCell>
                <mxCell id="23" value="" style="shape=partialRectangle;collapsible=0;dropTarget=0;pointerEvents=0;fillColor=none;top=0;left=0;bottom=1;right=0;points=[[0,0.5],[1,0.5]];portConstraint=eastwest;" parent="22" vertex="1">
                    <mxGeometry y="30" width="180" height="30" as="geometry"/>
                </mxCell>
                <mxCell id="24" value="PK" style="shape=partialRectangle;connectable=0;fillColor=none;top=0;left=0;bottom=0;right=0;fontStyle=1;overflow=hidden;" parent="23" vertex="1">
                    <mxGeometry width="30" height="30" as="geometry">
                        <mxRectangle width="30" height="30" as="alternateBounds"/>
                    </mxGeometry>
                </mxCell>
                <mxCell id="25" value="ID" style="shape=partialRectangle;connectable=0;fillColor=none;top=0;left=0;bottom=0;right=0;align=left;spacingLeft=6;fontStyle=5;overflow=hidden;" parent="23" vertex="1">
                    <mxGeometry x="30" width="150" height="30" as="geometry">
                        <mxRectangle width="150" height="30" as="alternateBounds"/>
                    </mxGeometry>
                </mxCell>
                <mxCell id="26" value="" style="shape=partialRectangle;collapsible=0;dropTarget=0;pointerEvents=0;fillColor=none;top=0;left=0;bottom=0;right=0;points=[[0,0.5],[1,0.5]];portConstraint=eastwest;" parent="22" vertex="1">
                    <mxGeometry y="60" width="180" height="30" as="geometry"/>
                </mxCell>
                <mxCell id="27" value="" style="shape=partialRectangle;connectable=0;fillColor=none;top=0;left=0;bottom=0;right=0;editable=1;overflow=hidden;" parent="26" vertex="1">
                    <mxGeometry width="30" height="30" as="geometry">
                        <mxRectangle width="30" height="30" as="alternateBounds"/>
                    </mxGeometry>
                </mxCell>
                <mxCell id="28" value="TITLE" style="shape=partialRectangle;connectable=0;fillColor=none;top=0;left=0;bottom=0;right=0;align=left;spacingLeft=6;overflow=hidden;" parent="26" vertex="1">
                    <mxGeometry x="30" width="150" height="30" as="geometry">
                        <mxRectangle width="150" height="30" as="alternateBounds"/>
                    </mxGeometry>
                </mxCell>
                <mxCell id="29" value="" style="shape=partialRectangle;collapsible=0;dropTarget=0;pointerEvents=0;fillColor=none;top=0;left=0;bottom=0;right=0;points=[[0,0.5],[1,0.5]];portConstraint=eastwest;" parent="22" vertex="1">
                    <mxGeometry y="90" width="180" height="30" as="geometry"/>
                </mxCell>
                <mxCell id="30" value="" style="shape=partialRectangle;connectable=0;fillColor=none;top=0;left=0;bottom=0;right=0;editable=1;overflow=hidden;" parent="29" vertex="1">
                    <mxGeometry width="30" height="30" as="geometry">
                        <mxRectangle width="30" height="30" as="alternateBounds"/>
                    </mxGeometry>
                </mxCell>
                <mxCell id="31" value="PRICE" style="shape=partialRectangle;connectable=0;fillColor=none;top=0;left=0;bottom=0;right=0;align=left;spacingLeft=6;overflow=hidden;" parent="29" vertex="1">
                    <mxGeometry x="30" width="150" height="30" as="geometry">
                        <mxRectangle width="150" height="30" as="alternateBounds"/>
                    </mxGeometry>
                </mxCell>
                <mxCell id="32" value="" style="shape=partialRectangle;collapsible=0;dropTarget=0;pointerEvents=0;fillColor=none;top=0;left=0;bottom=0;right=0;points=[[0,0.5],[1,0.5]];portConstraint=eastwest;" parent="22" vertex="1">
                    <mxGeometry y="120" width="180" height="30" as="geometry"/>
                </mxCell>
                <mxCell id="33" value="" style="shape=partialRectangle;connectable=0;fillColor=none;top=0;left=0;bottom=0;right=0;editable=1;overflow=hidden;" parent="32" vertex="1">
                    <mxGeometry width="30" height="30" as="geometry">
                        <mxRectangle width="30" height="30" as="alternateBounds"/>
                    </mxGeometry>
                </mxCell>
                <mxCell id="34" value="QTYSTOCK" style="shape=partialRectangle;connectable=0;fillColor=none;top=0;left=0;bottom=0;right=0;align=left;spacingLeft=6;overflow=hidden;" parent="32" vertex="1">
                    <mxGeometry x="30" width="150" height="30" as="geometry">
                        <mxRectangle width="150" height="30" as="alternateBounds"/>
                    </mxGeometry>
                </mxCell>
                <mxCell id="35" value="" style="shape=partialRectangle;collapsible=0;dropTarget=0;pointerEvents=0;fillColor=none;top=0;left=0;bottom=0;right=0;points=[[0,0.5],[1,0.5]];portConstraint=eastwest;" parent="22" vertex="1">
                    <mxGeometry y="150" width="180" height="30" as="geometry"/>
                </mxCell>
                <mxCell id="36" value="" style="shape=partialRectangle;connectable=0;fillColor=none;top=0;left=0;bottom=0;right=0;editable=1;overflow=hidden;" parent="35" vertex="1">
                    <mxGeometry width="30" height="30" as="geometry">
                        <mxRectangle width="30" height="30" as="alternateBounds"/>
                    </mxGeometry>
                </mxCell>
                <mxCell id="37" value="DESCRIPTION" style="shape=partialRectangle;connectable=0;fillColor=none;top=0;left=0;bottom=0;right=0;align=left;spacingLeft=6;overflow=hidden;" parent="35" vertex="1">
                    <mxGeometry x="30" width="150" height="30" as="geometry">
                        <mxRectangle width="150" height="30" as="alternateBounds"/>
                    </mxGeometry>
                </mxCell>
                <mxCell id="38" value="" style="shape=partialRectangle;collapsible=0;dropTarget=0;pointerEvents=0;fillColor=none;top=0;left=0;bottom=0;right=0;points=[[0,0.5],[1,0.5]];portConstraint=eastwest;" parent="22" vertex="1">
                    <mxGeometry y="180" width="180" height="30" as="geometry"/>
                </mxCell>
                <mxCell id="39" value="FK" style="shape=partialRectangle;connectable=0;fillColor=none;top=0;left=0;bottom=0;right=0;editable=1;overflow=hidden;" parent="38" vertex="1">
                    <mxGeometry width="30" height="30" as="geometry">
                        <mxRectangle width="30" height="30" as="alternateBounds"/>
                    </mxGeometry>
                </mxCell>
                <mxCell id="40" value="CATEGORY_ID" style="shape=partialRectangle;connectable=0;fillColor=none;top=0;left=0;bottom=0;right=0;align=left;spacingLeft=6;overflow=hidden;" parent="38" vertex="1">
                    <mxGeometry x="30" width="150" height="30" as="geometry">
                        <mxRectangle width="150" height="30" as="alternateBounds"/>
                    </mxGeometry>
                </mxCell>
                <mxCell id="44" value="" style="edgeStyle=entityRelationEdgeStyle;fontSize=12;html=1;endArrow=ERoneToMany;startArrow=ERmandOne;exitX=1;exitY=0.5;exitDx=0;exitDy=0;" parent="1" source="16" target="38" edge="1">
                    <mxGeometry width="100" height="100" relative="1" as="geometry">
                        <mxPoint x="330" y="210" as="sourcePoint"/>
                        <mxPoint x="370" y="250" as="targetPoint"/>
                    </mxGeometry>
                </mxCell>
                <object label="PAYMENT_METHODS" placeholders="1" id="46">
                    <mxCell style="shape=table;startSize=30;container=1;collapsible=1;childLayout=tableLayout;fixedRows=1;rowLines=0;fontStyle=1;align=center;resizeLast=1;" parent="1" vertex="1">
                        <mxGeometry x="450" y="290" width="180" height="100" as="geometry"/>
                    </mxCell>
                </object>
                <mxCell id="47" value="" style="shape=partialRectangle;collapsible=0;dropTarget=0;pointerEvents=0;fillColor=none;top=0;left=0;bottom=1;right=0;points=[[0,0.5],[1,0.5]];portConstraint=eastwest;" parent="46" vertex="1">
                    <mxGeometry y="30" width="180" height="30" as="geometry"/>
                </mxCell>
                <mxCell id="48" value="PK" style="shape=partialRectangle;connectable=0;fillColor=none;top=0;left=0;bottom=0;right=0;fontStyle=1;overflow=hidden;" parent="47" vertex="1">
                    <mxGeometry width="30" height="30" as="geometry">
                        <mxRectangle width="30" height="30" as="alternateBounds"/>
                    </mxGeometry>
                </mxCell>
                <mxCell id="49" value="ID" style="shape=partialRectangle;connectable=0;fillColor=none;top=0;left=0;bottom=0;right=0;align=left;spacingLeft=6;fontStyle=5;overflow=hidden;" parent="47" vertex="1">
                    <mxGeometry x="30" width="150" height="30" as="geometry">
                        <mxRectangle width="150" height="30" as="alternateBounds"/>
                    </mxGeometry>
                </mxCell>
                <mxCell id="50" value="" style="shape=partialRectangle;collapsible=0;dropTarget=0;pointerEvents=0;fillColor=none;top=0;left=0;bottom=0;right=0;points=[[0,0.5],[1,0.5]];portConstraint=eastwest;" parent="46" vertex="1">
                    <mxGeometry y="60" width="180" height="30" as="geometry"/>
                </mxCell>
                <mxCell id="51" value="" style="shape=partialRectangle;connectable=0;fillColor=none;top=0;left=0;bottom=0;right=0;editable=1;overflow=hidden;" parent="50" vertex="1">
                    <mxGeometry width="30" height="30" as="geometry">
                        <mxRectangle width="30" height="30" as="alternateBounds"/>
                    </mxGeometry>
                </mxCell>
                <mxCell id="52" value="DESCRIPTION" style="shape=partialRectangle;connectable=0;fillColor=none;top=0;left=0;bottom=0;right=0;align=left;spacingLeft=6;overflow=hidden;" parent="50" vertex="1">
                    <mxGeometry x="30" width="150" height="30" as="geometry">
                        <mxRectangle width="150" height="30" as="alternateBounds"/>
                    </mxGeometry>
                </mxCell>
                <mxCell id="53" value="CARTS" style="shape=table;startSize=30;container=1;collapsible=1;childLayout=tableLayout;fixedRows=1;rowLines=0;fontStyle=1;align=center;resizeLast=1;" parent="1" vertex="1">
                    <mxGeometry x="940" y="20" width="180" height="160" as="geometry"/>
                </mxCell>
                <mxCell id="54" value="" style="shape=partialRectangle;collapsible=0;dropTarget=0;pointerEvents=0;fillColor=none;top=0;left=0;bottom=1;right=0;points=[[0,0.5],[1,0.5]];portConstraint=eastwest;" parent="53" vertex="1">
                    <mxGeometry y="30" width="180" height="30" as="geometry"/>
                </mxCell>
                <mxCell id="55" value="PK" style="shape=partialRectangle;connectable=0;fillColor=none;top=0;left=0;bottom=0;right=0;fontStyle=1;overflow=hidden;" parent="54" vertex="1">
                    <mxGeometry width="30" height="30" as="geometry">
                        <mxRectangle width="30" height="30" as="alternateBounds"/>
                    </mxGeometry>
                </mxCell>
                <mxCell id="56" value="ID" style="shape=partialRectangle;connectable=0;fillColor=none;top=0;left=0;bottom=0;right=0;align=left;spacingLeft=6;fontStyle=5;overflow=hidden;" parent="54" vertex="1">
                    <mxGeometry x="30" width="150" height="30" as="geometry">
                        <mxRectangle width="150" height="30" as="alternateBounds"/>
                    </mxGeometry>
                </mxCell>
                <mxCell id="57" value="" style="shape=partialRectangle;collapsible=0;dropTarget=0;pointerEvents=0;fillColor=none;top=0;left=0;bottom=0;right=0;points=[[0,0.5],[1,0.5]];portConstraint=eastwest;" parent="53" vertex="1">
                    <mxGeometry y="60" width="180" height="30" as="geometry"/>
                </mxCell>
                <mxCell id="58" value="" style="shape=partialRectangle;connectable=0;fillColor=none;top=0;left=0;bottom=0;right=0;editable=1;overflow=hidden;" parent="57" vertex="1">
                    <mxGeometry width="30" height="30" as="geometry">
                        <mxRectangle width="30" height="30" as="alternateBounds"/>
                    </mxGeometry>
                </mxCell>
                <mxCell id="59" value="ORDER_PRICE" style="shape=partialRectangle;connectable=0;fillColor=none;top=0;left=0;bottom=0;right=0;align=left;spacingLeft=6;overflow=hidden;" parent="57" vertex="1">
                    <mxGeometry x="30" width="150" height="30" as="geometry">
                        <mxRectangle width="150" height="30" as="alternateBounds"/>
                    </mxGeometry>
                </mxCell>
                <mxCell id="60" value="" style="shape=partialRectangle;collapsible=0;dropTarget=0;pointerEvents=0;fillColor=none;top=0;left=0;bottom=0;right=0;points=[[0,0.5],[1,0.5]];portConstraint=eastwest;" parent="53" vertex="1">
                    <mxGeometry y="90" width="180" height="30" as="geometry"/>
                </mxCell>
                <mxCell id="61" value="" style="shape=partialRectangle;connectable=0;fillColor=none;top=0;left=0;bottom=0;right=0;editable=1;overflow=hidden;" parent="60" vertex="1">
                    <mxGeometry width="30" height="30" as="geometry">
                        <mxRectangle width="30" height="30" as="alternateBounds"/>
                    </mxGeometry>
                </mxCell>
                <mxCell id="62" value="DELIVERY_FEE" style="shape=partialRectangle;connectable=0;fillColor=none;top=0;left=0;bottom=0;right=0;align=left;spacingLeft=6;overflow=hidden;" parent="60" vertex="1">
                    <mxGeometry x="30" width="150" height="30" as="geometry">
                        <mxRectangle width="150" height="30" as="alternateBounds"/>
                    </mxGeometry>
                </mxCell>
                <mxCell id="63" value="" style="shape=partialRectangle;collapsible=0;dropTarget=0;pointerEvents=0;fillColor=none;top=0;left=0;bottom=0;right=0;points=[[0,0.5],[1,0.5]];portConstraint=eastwest;" parent="53" vertex="1">
                    <mxGeometry y="120" width="180" height="30" as="geometry"/>
                </mxCell>
                <mxCell id="64" value="" style="shape=partialRectangle;connectable=0;fillColor=none;top=0;left=0;bottom=0;right=0;editable=1;overflow=hidden;" parent="63" vertex="1">
                    <mxGeometry width="30" height="30" as="geometry">
                        <mxRectangle width="30" height="30" as="alternateBounds"/>
                    </mxGeometry>
                </mxCell>
                <mxCell id="65" value="PURCHASE_PRICE" style="shape=partialRectangle;connectable=0;fillColor=none;top=0;left=0;bottom=0;right=0;align=left;spacingLeft=6;overflow=hidden;" parent="63" vertex="1">
                    <mxGeometry x="30" width="150" height="30" as="geometry">
                        <mxRectangle width="150" height="30" as="alternateBounds"/>
                    </mxGeometry>
                </mxCell>
                <mxCell id="86" value="Â Â Â NON_LOGGED_IN" style="shape=table;startSize=30;container=1;collapsible=1;childLayout=tableLayout;fixedRows=1;rowLines=0;fontStyle=1;align=center;resizeLast=1;" parent="1" vertex="1">
                    <mxGeometry x="1010" y="230" width="180" height="130" as="geometry"/>
                </mxCell>
                <mxCell id="87" value="" style="shape=partialRectangle;collapsible=0;dropTarget=0;pointerEvents=0;fillColor=none;top=0;left=0;bottom=1;right=0;points=[[0,0.5],[1,0.5]];portConstraint=eastwest;" parent="86" vertex="1">
                    <mxGeometry y="30" width="180" height="30" as="geometry"/>
                </mxCell>
                <mxCell id="88" value="PK" style="shape=partialRectangle;connectable=0;fillColor=none;top=0;left=0;bottom=0;right=0;fontStyle=1;overflow=hidden;" parent="87" vertex="1">
                    <mxGeometry width="30" height="30" as="geometry">
                        <mxRectangle width="30" height="30" as="alternateBounds"/>
                    </mxGeometry>
                </mxCell>
                <mxCell id="89" value="ID" style="shape=partialRectangle;connectable=0;fillColor=none;top=0;left=0;bottom=0;right=0;align=left;spacingLeft=6;fontStyle=5;overflow=hidden;" parent="87" vertex="1">
                    <mxGeometry x="30" width="150" height="30" as="geometry">
                        <mxRectangle width="150" height="30" as="alternateBounds"/>
                    </mxGeometry>
                </mxCell>
                <mxCell id="90" value="" style="shape=partialRectangle;collapsible=0;dropTarget=0;pointerEvents=0;fillColor=none;top=0;left=0;bottom=0;right=0;points=[[0,0.5],[1,0.5]];portConstraint=eastwest;" parent="86" vertex="1">
                    <mxGeometry y="60" width="180" height="30" as="geometry"/>
                </mxCell>
                <mxCell id="91" value="" style="shape=partialRectangle;connectable=0;fillColor=none;top=0;left=0;bottom=0;right=0;editable=1;overflow=hidden;" parent="90" vertex="1">
                    <mxGeometry width="30" height="30" as="geometry">
                        <mxRectangle width="30" height="30" as="alternateBounds"/>
                    </mxGeometry>
                </mxCell>
                <mxCell id="92" value="TOKEN" style="shape=partialRectangle;connectable=0;fillColor=none;top=0;left=0;bottom=0;right=0;align=left;spacingLeft=6;overflow=hidden;" parent="90" vertex="1">
                    <mxGeometry x="30" width="150" height="30" as="geometry">
                        <mxRectangle width="150" height="30" as="alternateBounds"/>
                    </mxGeometry>
                </mxCell>
                <mxCell id="93" value="" style="shape=partialRectangle;collapsible=0;dropTarget=0;pointerEvents=0;fillColor=none;top=0;left=0;bottom=0;right=0;points=[[0,0.5],[1,0.5]];portConstraint=eastwest;" parent="86" vertex="1">
                    <mxGeometry y="90" width="180" height="30" as="geometry"/>
                </mxCell>
                <mxCell id="94" value="" style="shape=partialRectangle;connectable=0;fillColor=none;top=0;left=0;bottom=0;right=0;editable=1;overflow=hidden;" parent="93" vertex="1">
                    <mxGeometry width="30" height="30" as="geometry">
                        <mxRectangle width="30" height="30" as="alternateBounds"/>
                    </mxGeometry>
                </mxCell>
                <mxCell id="95" value="CART_ID" style="shape=partialRectangle;connectable=0;fillColor=none;top=0;left=0;bottom=0;right=0;align=left;spacingLeft=6;overflow=hidden;" parent="93" vertex="1">
                    <mxGeometry x="30" width="150" height="30" as="geometry">
                        <mxRectangle width="150" height="30" as="alternateBounds"/>
                    </mxGeometry>
                </mxCell>
                <mxCell id="99" value="CART_ITEMS" style="shape=table;startSize=30;container=1;collapsible=1;childLayout=tableLayout;fixedRows=1;rowLines=0;fontStyle=1;align=center;resizeLast=1;" parent="1" vertex="1">
                    <mxGeometry x="660" y="70" width="180" height="130" as="geometry"/>
                </mxCell>
                <mxCell id="100" value="" style="shape=partialRectangle;collapsible=0;dropTarget=0;pointerEvents=0;fillColor=none;top=0;left=0;bottom=0;right=0;points=[[0,0.5],[1,0.5]];portConstraint=eastwest;" parent="99" vertex="1">
                    <mxGeometry y="30" width="180" height="30" as="geometry"/>
                </mxCell>
                <mxCell id="101" value="PK,FK1" style="shape=partialRectangle;connectable=0;fillColor=none;top=0;left=0;bottom=0;right=0;fontStyle=1;overflow=hidden;" parent="100" vertex="1">
                    <mxGeometry width="60" height="30" as="geometry">
                        <mxRectangle width="60" height="30" as="alternateBounds"/>
                    </mxGeometry>
                </mxCell>
                <mxCell id="102" value="CART_ID" style="shape=partialRectangle;connectable=0;fillColor=none;top=0;left=0;bottom=0;right=0;align=left;spacingLeft=6;fontStyle=5;overflow=hidden;" parent="100" vertex="1">
                    <mxGeometry x="60" width="120" height="30" as="geometry">
                        <mxRectangle width="120" height="30" as="alternateBounds"/>
                    </mxGeometry>
                </mxCell>
                <mxCell id="103" value="" style="shape=partialRectangle;collapsible=0;dropTarget=0;pointerEvents=0;fillColor=none;top=0;left=0;bottom=1;right=0;points=[[0,0.5],[1,0.5]];portConstraint=eastwest;" parent="99" vertex="1">
                    <mxGeometry y="60" width="180" height="30" as="geometry"/>
                </mxCell>
                <mxCell id="104" value="PK,FK2" style="shape=partialRectangle;connectable=0;fillColor=none;top=0;left=0;bottom=0;right=0;fontStyle=1;overflow=hidden;" parent="103" vertex="1">
                    <mxGeometry width="60" height="30" as="geometry">
                        <mxRectangle width="60" height="30" as="alternateBounds"/>
                    </mxGeometry>
                </mxCell>
                <mxCell id="105" value="PRODUCT_ID" style="shape=partialRectangle;connectable=0;fillColor=none;top=0;left=0;bottom=0;right=0;align=left;spacingLeft=6;fontStyle=5;overflow=hidden;" parent="103" vertex="1">
                    <mxGeometry x="60" width="120" height="30" as="geometry">
                        <mxRectangle width="120" height="30" as="alternateBounds"/>
                    </mxGeometry>
                </mxCell>
                <mxCell id="109" value="" style="shape=partialRectangle;collapsible=0;dropTarget=0;pointerEvents=0;fillColor=none;top=0;left=0;bottom=0;right=0;points=[[0,0.5],[1,0.5]];portConstraint=eastwest;" parent="99" vertex="1">
                    <mxGeometry y="90" width="180" height="30" as="geometry"/>
                </mxCell>
                <mxCell id="110" value="" style="shape=partialRectangle;connectable=0;fillColor=none;top=0;left=0;bottom=0;right=0;editable=1;overflow=hidden;" parent="109" vertex="1">
                    <mxGeometry width="60" height="30" as="geometry">
                        <mxRectangle width="60" height="30" as="alternateBounds"/>
                    </mxGeometry>
                </mxCell>
                <mxCell id="111" value="QTY" style="shape=partialRectangle;connectable=0;fillColor=none;top=0;left=0;bottom=0;right=0;align=left;spacingLeft=6;overflow=hidden;" parent="109" vertex="1">
                    <mxGeometry x="60" width="120" height="30" as="geometry">
                        <mxRectangle width="120" height="30" as="alternateBounds"/>
                    </mxGeometry>
                </mxCell>
                <mxCell id="112" value="" style="edgeStyle=entityRelationEdgeStyle;fontSize=12;html=1;endArrow=ERzeroToOne;endFill=1;exitX=1.014;exitY=0.262;exitDx=0;exitDy=0;exitPerimeter=0;" parent="1" source="54" target="87" edge="1">
                    <mxGeometry width="100" height="100" relative="1" as="geometry">
                        <mxPoint x="1000" y="250" as="sourcePoint"/>
                        <mxPoint x="1100" y="150" as="targetPoint"/>
                    </mxGeometry>
                </mxCell>
                <mxCell id="126" value="" style="edgeStyle=entityRelationEdgeStyle;fontSize=12;html=1;endArrow=ERmandOne;startArrow=ERmandOne;exitX=1;exitY=0.5;exitDx=0;exitDy=0;entryX=0;entryY=0.5;entryDx=0;entryDy=0;" parent="1" source="135" target="57" edge="1">
                    <mxGeometry width="100" height="100" relative="1" as="geometry">
                        <mxPoint x="920" y="395" as="sourcePoint"/>
                        <mxPoint x="940" y="60" as="targetPoint"/>
                    </mxGeometry>
                </mxCell>
                <mxCell id="130" value="" style="edgeStyle=entityRelationEdgeStyle;fontSize=12;html=1;endArrow=ERmandOne;startArrow=ERmandOne;exitX=1;exitY=0.5;exitDx=0;exitDy=0;entryX=0;entryY=0.5;entryDx=0;entryDy=0;" parent="1" source="47" target="138" edge="1">
                    <mxGeometry width="100" height="100" relative="1" as="geometry">
                        <mxPoint x="590" y="310" as="sourcePoint"/>
                        <mxPoint x="740" y="454.9999999999999" as="targetPoint"/>
                    </mxGeometry>
                </mxCell>
                <mxCell id="132" value="" style="edgeStyle=entityRelationEdgeStyle;fontSize=12;html=1;endArrow=ERoneToMany;startArrow=ERmandOne;exitX=1;exitY=0.5;exitDx=0;exitDy=0;entryX=0;entryY=0.5;entryDx=0;entryDy=0;" parent="1" source="23" target="103" edge="1">
                    <mxGeometry width="100" height="100" relative="1" as="geometry">
                        <mxPoint x="650" y="200" as="sourcePoint"/>
                        <mxPoint x="750" y="100" as="targetPoint"/>
                    </mxGeometry>
                </mxCell>
                <mxCell id="133" value="" style="edgeStyle=entityRelationEdgeStyle;fontSize=12;html=1;endArrow=ERoneToMany;startArrow=ERmandOne;exitX=0;exitY=0.5;exitDx=0;exitDy=0;entryX=1;entryY=0.5;entryDx=0;entryDy=0;" parent="1" source="54" target="100" edge="1">
                    <mxGeometry width="100" height="100" relative="1" as="geometry">
                        <mxPoint x="860" y="200" as="sourcePoint"/>
                        <mxPoint x="960" y="100" as="targetPoint"/>
                    </mxGeometry>
                </mxCell>
                <mxCell id="134" value="SALES" style="shape=table;startSize=30;container=1;collapsible=1;childLayout=tableLayout;fixedRows=1;rowLines=0;fontStyle=1;align=center;resizeLast=1;" parent="1" vertex="1">
                    <mxGeometry x="730" y="310" width="180" height="100" as="geometry"/>
                </mxCell>
                <mxCell id="135" value="" style="shape=partialRectangle;collapsible=0;dropTarget=0;pointerEvents=0;fillColor=none;top=0;left=0;bottom=0;right=0;points=[[0,0.5],[1,0.5]];portConstraint=eastwest;" parent="134" vertex="1">
                    <mxGeometry y="30" width="180" height="30" as="geometry"/>
                </mxCell>
                <mxCell id="136" value="PK,FK1" style="shape=partialRectangle;connectable=0;fillColor=none;top=0;left=0;bottom=0;right=0;fontStyle=1;overflow=hidden;" parent="135" vertex="1">
                    <mxGeometry width="60" height="30" as="geometry">
                        <mxRectangle width="60" height="30" as="alternateBounds"/>
                    </mxGeometry>
                </mxCell>
                <mxCell id="137" value="CART_ID" style="shape=partialRectangle;connectable=0;fillColor=none;top=0;left=0;bottom=0;right=0;align=left;spacingLeft=6;fontStyle=5;overflow=hidden;" parent="135" vertex="1">
                    <mxGeometry x="60" width="120" height="30" as="geometry">
                        <mxRectangle width="120" height="30" as="alternateBounds"/>
                    </mxGeometry>
                </mxCell>
                <mxCell id="138" value="" style="shape=partialRectangle;collapsible=0;dropTarget=0;pointerEvents=0;fillColor=none;top=0;left=0;bottom=1;right=0;points=[[0,0.5],[1,0.5]];portConstraint=eastwest;" parent="134" vertex="1">
                    <mxGeometry y="60" width="180" height="30" as="geometry"/>
                </mxCell>
                <mxCell id="139" value="PK,FK2" style="shape=partialRectangle;connectable=0;fillColor=none;top=0;left=0;bottom=0;right=0;fontStyle=1;overflow=hidden;" parent="138" vertex="1">
                    <mxGeometry width="60" height="30" as="geometry">
                        <mxRectangle width="60" height="30" as="alternateBounds"/>
                    </mxGeometry>
                </mxCell>
                <mxCell id="140" value="PAYMENT_ID" style="shape=partialRectangle;connectable=0;fillColor=none;top=0;left=0;bottom=0;right=0;align=left;spacingLeft=6;fontStyle=5;overflow=hidden;" parent="138" vertex="1">
                    <mxGeometry x="60" width="120" height="30" as="geometry">
                        <mxRectangle width="120" height="30" as="alternateBounds"/>
                    </mxGeometry>
                </mxCell>
            </root>
        </mxGraphModel>
    </diagram>
</mxfile>